<svg xmlns="http://www.w3.org/2000/svg" viewBox="0 0 420 96" fill="none">
  <rect width="420" height="96" rx="48" fill="#7C3AED"/>
  <text x="38" y="52" fill="#ffffff" font-family="Plus Jakarta Sans, Segoe UI, system-ui, sans-serif" font-size="36" font-weight="800" letter-spacing="-1">Betagree.c</text>
  <g transform="translate(268 22)">
    <circle cx="20" cy="20" r="17" fill="#fff" stroke="#111" stroke-width="1.6"/>
    <path fill="#111" d="M20 9.2 26.8 14.2 24.2 22.6 15.8 22.6 13.2 14.2Z"/>
    <path fill="none" stroke="#111" stroke-width="1.3" stroke-linejoin="round" d="M26.8 14.2 33.6 12.2 36.2 20 30 24.8 24.2 22.6M24.2 22.6 30 24.8 28.4 33 20 35 15.8 22.6M15.8 22.6 20 35 11.6 33 10 24.8 13.2 14.2M13.2 14.2 10 24.8 3.8 20 6.4 12.2 13.2 14.2M26.8 14.2 20 9.2 13.2 14.2"/>
  </g>
  <text x="312" y="52" fill="#ffffff" font-family="Plus Jakarta Sans, Segoe UI, system-ui, sans-serif" font-size="36" font-weight="800" letter-spacing="-1">m</text>
  <text x="210" y="76" text-anchor="middle" fill="#ffffff" font-family="Plus Jakarta Sans, Segoe UI, system-ui, sans-serif" font-size="11" font-weight="500">…where every soccer tip agrees</text>
</svg>
